<?xml version="1.0" encoding="UTF-8" standalone="no"?>
<svg
   xmlns:dc="http://purl.org/dc/elements/1.1/"
   xmlns:cc="http://creativecommons.org/ns#"
   xmlns:rdf="http://www.w3.org/1999/02/22-rdf-syntax-ns#"
   xmlns:svg="http://www.w3.org/2000/svg"
   xmlns="http://www.w3.org/2000/svg"
   xmlns:sodipodi="http://sodipodi.sourceforge.net/DTD/sodipodi-0.dtd"
   xmlns:inkscape="http://www.inkscape.org/namespaces/inkscape"
   data-name="Layer 1"
   id="Layer_1"
   viewBox="0 0 100 100"
   version="1.1"
   sodipodi:docname="backend.svg"
   inkscape:version="0.92.4 5da689c313, 2019-01-14">
  <metadata
     id="metadata782">
    <rdf:RDF>
      <cc:Work
         rdf:about="">
        <dc:format>image/svg+xml</dc:format>
        <dc:type
           rdf:resource="http://purl.org/dc/dcmitype/StillImage" />
      </cc:Work>
    </rdf:RDF>
  </metadata>
  <defs
     id="defs780" />
  <sodipodi:namedview
     pagecolor="#ffffff"
     bordercolor="#666666"
     borderopacity="1"
     objecttolerance="10"
     gridtolerance="10"
     guidetolerance="10"
     inkscape:pageopacity="0"
     inkscape:pageshadow="2"
     inkscape:window-width="1316"
     inkscape:window-height="743"
     id="namedview778"
     showgrid="false"
     inkscape:zoom="2.36"
     inkscape:cx="50"
     inkscape:cy="50"
     inkscape:window-x="50"
     inkscape:window-y="0"
     inkscape:window-maximized="1"
     inkscape:current-layer="Layer_1" />
  <title
     id="title755" />
  <rect
     height="6"
     width="4"
     x="16"
     y="17"
     id="rect757" />
  <rect
     height="6"
     width="4"
     x="24"
     y="17"
     id="rect759" />
  <rect
     height="6"
     width="4"
     x="32"
     y="17"
     id="rect761" />
  <rect
     height="6"
     width="4"
     x="16"
     y="44"
     id="rect763" />
  <rect
     height="6"
     width="4"
     x="24"
     y="44"
     id="rect765" />
  <rect
     height="6"
     width="4"
     x="32"
     y="44"
     id="rect767" />
  <rect
     height="6"
     width="4"
     x="16"
     y="71"
     id="rect769" />
  <rect
     height="6"
     width="4"
     x="24"
     y="71"
     id="rect771" />
  <rect
     height="6"
     width="4"
     x="32"
     y="71"
     id="rect773" />
  <path
     d="M67.5,15H66V13a5,5,0,0,0-5-5H11a5,5,0,0,0-5,5V27a5,5,0,0,0,5,5h1v3H11a5,5,0,0,0-5,5V54a5,5,0,0,0,5,5h1v3H11a5,5,0,0,0-5,5V81a5,5,0,0,0,5,5h1v7H60V86h1a5,5,0,0,0,5-5V80h1.5C80.26,80,94,77.09,94,70.71V23.9h0C93.84,17.79,80.19,15,67.5,15ZM11,28a1,1,0,0,1-1-1V13a1,1,0,0,1,1-1H61a1,1,0,0,1,1,1v2.18c-10.85.69-20.87,3.49-21,8.72h0V28Zm30,4v3H16V32ZM11,55a1,1,0,0,1-1-1V40a1,1,0,0,1,1-1H41V55Zm30,4v3H16V59ZM56,89H16V86H56Zm6-8a1,1,0,0,1-1,1H11a1,1,0,0,1-1-1V67a1,1,0,0,1,1-1H41v4.71c0,5.47,10.08,8.38,21,9.11ZM90,70.71C90,72.29,82.34,76,67.5,76S45,72.29,45,70.71V60.9C50,63.69,59,65,67.5,65S85,63.69,90,60.9Zm0-15.07C90,57.25,82.34,61,67.5,61S45,57.25,45,55.64V45c5,2.71,14,4,22.5,4S85,47.72,90,45Zm0-15.75C90,41.37,82.12,45,67.5,45S45,41.37,45,39.89V29.06C50,31.74,59,33,67.5,33S85,31.74,90,29.06ZM67.5,29C52,29,45,25.16,45,24s7-5,22.5-5S90,22.84,90,24,83,29,67.5,29Z"
     id="path775"
     style="fill:#1a1a1a" />
</svg>
