<?xml version="1.0" encoding="UTF-8" standalone="no"?>
<svg
   xmlns:dc="http://purl.org/dc/elements/1.1/"
   xmlns:cc="http://creativecommons.org/ns#"
   xmlns:rdf="http://www.w3.org/1999/02/22-rdf-syntax-ns#"
   xmlns:svg="http://www.w3.org/2000/svg"
   xmlns="http://www.w3.org/2000/svg"
   xmlns:sodipodi="http://sodipodi.sourceforge.net/DTD/sodipodi-0.dtd"
   xmlns:inkscape="http://www.inkscape.org/namespaces/inkscape"
   enable-background="new 0 0 512 512"
   height="512px"
   id="Layer_1"
   version="1.1"
   viewBox="0 0 512 512"
   width="512px"
   xml:space="preserve"
   sodipodi:docname="ecomerce.svg"
   inkscape:version="0.92.4 5da689c313, 2019-01-14"><metadata
     id="metadata11"><rdf:RDF><cc:Work
         rdf:about=""><dc:format>image/svg+xml</dc:format><dc:type
           rdf:resource="http://purl.org/dc/dcmitype/StillImage" /><dc:title /></cc:Work></rdf:RDF></metadata><defs
     id="defs9" /><sodipodi:namedview
     pagecolor="#ffffff"
     bordercolor="#666666"
     borderopacity="1"
     objecttolerance="10"
     gridtolerance="10"
     guidetolerance="10"
     inkscape:pageopacity="0"
     inkscape:pageshadow="2"
     inkscape:window-width="1316"
     inkscape:window-height="743"
     id="namedview7"
     showgrid="false"
     inkscape:zoom="0.4609375"
     inkscape:cx="-264.67797"
     inkscape:cy="253.83051"
     inkscape:window-x="50"
     inkscape:window-y="0"
     inkscape:window-maximized="1"
     inkscape:current-layer="Layer_1" /><g
     id="g4"
     style="fill:#1a1a1a"><path
       style="fill:#1a1a1a"
       d="M 72,48 C 41.07,48 16,73.063 16,104 v 304 c 0,30.922 25.07,56 56,56 h 368 c 30.93,0 56,-25.078 56,-56 V 104 C 496,73.063 470.93,48 440,48 Z m 224.67188,32 h 14.65624 C 316.11712,80 320,83.874875 320,88.671875 V 103.32812 C 320,108.12512 316.11712,112 311.32812,112 H 296.67188 C 291.88287,112 288,108.12512 288,103.32812 V 88.671875 C 288,83.874875 291.88287,80 296.67188,80 Z m 64,0 h 14.65624 C 380.11712,80 384,83.874875 384,88.671875 V 103.32812 C 384,108.12512 380.11712,112 375.32812,112 H 360.67188 C 355.88287,112 352,108.12512 352,103.32812 V 88.671875 C 352,83.874875 355.88287,80 360.67188,80 Z m 64,0 h 14.65624 C 444.11712,80 448,83.874875 448,88.671875 V 103.32812 C 448,108.12512 444.11712,112 439.32812,112 H 424.67188 C 419.88287,112 416,108.12512 416,103.32812 V 88.671875 C 416,83.874875 419.88287,80 424.67188,80 Z M 48,144 h 416 v 264 c 0,13.234 -10.766,24 -24,24 H 72 C 58.766,432 48,421.234 48,408 Z"
       id="path2"
       inkscape:connector-curvature="0"
       sodipodi:nodetypes="ssssssssssssssssssssssssssssssssssssccssssc" /></g><g
     transform="matrix(0.26938279,0,0,0.26938279,102.88132,151.68149)"
     id="g6"
     style="fill:#1a1a1a"><path
       inkscape:connector-curvature="0"
       d="M 186.1,132.5 H 40.6 C 23.7,132.5 10,118.8 10,101.9 10,85 23.7,71.3 40.6,71.3 h 145.5 c 16.9,0 30.6,13.7 30.6,30.6 0,16.9 -13.7,30.6 -30.6,30.6 z M 844.5,775.6 H 346.9 c -16.9,0 -30.6,-13.7 -30.6,-30.6 0,-16.9 13.7,-30.6 30.6,-30.6 h 497.7 c 16.9,0 30.6,13.7 30.6,30.6 0,16.9 -13.8,30.6 -30.7,30.6 z M 959.4,255 H 232 c -16.9,0 -30.6,-13.7 -30.6,-30.6 0,-16.9 13.7,-30.6 30.6,-30.6 h 727.3 c 16.9,0 30.6,13.7 30.6,30.6 0.1,16.9 -13.6,30.6 -30.5,30.6 z M 911.5,438.8 H 279.9 c -16.9,0 -30.6,-13.7 -30.6,-30.6 0,-16.9 13.7,-30.6 30.6,-30.6 h 631.6 c 16.9,0 30.6,13.7 30.6,30.6 0,16.8 -13.7,30.6 -30.6,30.6 z m -44,183.7 H 327.7 c -16.9,0 -30.6,-13.7 -30.6,-30.6 0,-16.9 13.7,-30.6 30.6,-30.6 h 539.8 c 16.9,0 30.6,13.7 30.6,30.6 0,16.9 -13.7,30.6 -30.6,30.6 z M 588,618.7 c -16.9,0 -30.6,-13.7 -30.6,-30.6 V 258.8 c 0,-16.9 13.7,-30.6 30.6,-30.6 16.9,0 30.6,13.7 30.6,30.6 V 588 c 0.1,17 -13.6,30.7 -30.6,30.7 z M 798.8,236.8 759.6,563.7 c -2,16.8 -17.3,28.8 -34.1,26.8 -16.8,-2 -28.8,-17.3 -26.8,-34 L 738,229.6 c 2,-16.8 17.3,-28.8 34.1,-26.8 16.8,2 28.7,17.3 26.7,34 z m 189.5,-4.2 -88.3,356 c -4,16.4 -20.6,26.5 -37.1,22.4 -16.4,-4 -26.5,-20.6 -22.4,-37.1 l 88.3,-356 c 4,-16.4 20.6,-26.5 37.1,-22.4 16.4,4.1 26.4,20.7 22.4,37.1 z M 451.5,595.2 c -16.8,2.2 -32.1,-9.7 -34.3,-26.5 L 377.8,261.1 c -2.2,-16.8 9.7,-32.1 26.5,-34.3 16.8,-2.2 32.1,9.7 34.3,26.5 L 478,560.9 c 2.1,16.8 -9.7,32.1 -26.5,34.3 z m -98.9,173.2 c -16.5,4.1 -33.1,-5.9 -37.2,-22.3 L 158,115.5 c -4.1,-16.4 5.9,-33 22.4,-37.1 16.5,-4.1 33.1,5.9 37.2,22.3 l 157.3,630.6 c 4.1,16.4 -5.9,33.1 -22.3,37.1 z m 47.9,160.3 c -33.8,0 -61.2,-27.4 -61.2,-61.2 0,-33.8 27.4,-61.3 61.2,-61.3 33.8,0 61.2,27.4 61.2,61.3 0,33.8 -27.4,61.2 -61.2,61.2 z m 375.1,0 c -33.8,0 -61.2,-27.4 -61.2,-61.2 0,-33.8 27.4,-61.3 61.2,-61.3 33.8,0 61.3,27.4 61.3,61.3 0,33.8 -27.5,61.2 -61.3,61.2 z"
       id="path4"
       style="fill:#1a1a1a" /></g></svg>