<?xml version="1.0" encoding="UTF-8" standalone="no"?>
<svg
   xmlns:dc="http://purl.org/dc/elements/1.1/"
   xmlns:cc="http://creativecommons.org/ns#"
   xmlns:rdf="http://www.w3.org/1999/02/22-rdf-syntax-ns#"
   xmlns:svg="http://www.w3.org/2000/svg"
   xmlns="http://www.w3.org/2000/svg"
   xmlns:sodipodi="http://sodipodi.sourceforge.net/DTD/sodipodi-0.dtd"
   xmlns:inkscape="http://www.inkscape.org/namespaces/inkscape"
   enable-background="new 0 0 512 512"
   height="512px"
   id="Layer_1"
   version="1.1"
   viewBox="0 0 512 512"
   width="512px"
   xml:space="preserve"
   sodipodi:docname="frontapi.svg"
   inkscape:version="0.92.4 5da689c313, 2019-01-14"><metadata
     id="metadata11"><rdf:RDF><cc:Work
         rdf:about=""><dc:format>image/svg+xml</dc:format><dc:type
           rdf:resource="http://purl.org/dc/dcmitype/StillImage" /></cc:Work></rdf:RDF></metadata><defs
     id="defs9" /><sodipodi:namedview
     pagecolor="#ffffff"
     bordercolor="#666666"
     borderopacity="1"
     objecttolerance="10"
     gridtolerance="10"
     guidetolerance="10"
     inkscape:pageopacity="0"
     inkscape:pageshadow="2"
     inkscape:window-width="1316"
     inkscape:window-height="743"
     id="namedview7"
     showgrid="false"
     inkscape:zoom="0.921875"
     inkscape:cx="-4.3389831"
     inkscape:cy="253.83051"
     inkscape:window-x="50"
     inkscape:window-y="0"
     inkscape:window-maximized="1"
     inkscape:current-layer="Layer_1" /><g
     id="g4"
     style="fill:#1a1a1a"><path
       style="fill:#1a1a1a"
       d="M 72,48 C 41.07,48 16,73.063 16,104 v 304 c 0,30.922 25.07,56 56,56 h 368 c 30.93,0 56,-25.078 56,-56 V 104 C 496,73.063 470.93,48 440,48 Z m 224.67188,32 h 14.65624 C 316.11712,80 320,83.874875 320,88.671875 V 103.32812 C 320,108.12512 316.11712,112 311.32812,112 H 296.67188 C 291.88287,112 288,108.12512 288,103.32812 V 88.671875 C 288,83.874875 291.88287,80 296.67188,80 Z m 64,0 h 14.65624 C 380.11712,80 384,83.874875 384,88.671875 V 103.32812 C 384,108.12512 380.11712,112 375.32812,112 H 360.67188 C 355.88287,112 352,108.12512 352,103.32812 V 88.671875 C 352,83.874875 355.88287,80 360.67188,80 Z m 64,0 h 14.65624 C 444.11712,80 448,83.874875 448,88.671875 V 103.32812 C 448,108.12512 444.11712,112 439.32812,112 H 424.67188 C 419.88287,112 416,108.12512 416,103.32812 V 88.671875 C 416,83.874875 419.88287,80 424.67188,80 Z M 48,144 h 416 v 264 c 0,13.234 -10.766,24 -24,24 H 72 C 58.766,432 48,421.234 48,408 Z"
       id="path2"
       inkscape:connector-curvature="0"
       sodipodi:nodetypes="ssssssssssssssssssssssssssssssssssssccssssc" /></g><path
     style="stroke-width:0.16895433;fill:#1a1a1a"
     d="m 280.15867,173.36858 c -0.83158,-0.004 -1.6519,0.22181 -2.46147,0.6794 -1.29532,0.73212 -2.16754,1.83109 -2.6181,3.29536 l -63.02044,218.11857 c -0.45054,1.46427 -0.30883,2.84452 0.4233,4.13984 0.73213,1.29532 1.82898,2.16754 3.29325,2.61809 l 10.4766,2.87419 c 1.35163,0.45053 2.6752,0.30884 3.97052,-0.4233 1.29532,-0.73213 2.16755,-1.83109 2.6181,-3.29536 l 63.02044,-218.11858 c 0.45054,-1.46427 0.30883,-2.84452 -0.4233,-4.13984 -0.73213,-1.29532 -1.83109,-2.16755 -3.29536,-2.61808 l -10.47449,-2.8742 c -0.50686,-0.16895 -1.0101,-0.25345 -1.50905,-0.25609 z m -96.48419,31.68166 c -1.46427,0 -2.7595,0.56472 -3.88586,1.69107 l -78.73323,78.73112 c -1.126372,1.12636 -1.688965,2.42159 -1.688965,3.88586 0,1.46427 0.562593,2.76162 1.688965,3.88798 l 78.73323,78.73112 c 1.12636,1.12636 2.42159,1.69108 3.88586,1.69108 1.46428,0 2.7595,-0.56472 3.88587,-1.69108 l 8.44689,-8.44689 c 1.12636,-1.12636 1.69107,-2.4216 1.69107,-3.88587 0,-1.46427 -0.56471,-2.7595 -1.69107,-3.88587 l -66.39836,-66.40047 66.39836,-66.39835 c 1.12636,-1.12637 1.69107,-2.4216 1.69107,-3.88587 0,-1.46427 -0.56471,-2.7595 -1.69107,-3.88587 l -8.44689,-8.44689 c -1.12637,-1.12635 -2.42159,-1.69107 -3.88587,-1.69107 z m 140.57057,0 c -1.46428,0 -2.7595,0.56472 -3.88587,1.69107 l -8.44901,8.44689 c -1.12636,1.12637 -1.68895,2.4216 -1.68895,3.88587 0,1.46427 0.56259,2.7595 1.68895,3.88587 l 66.40048,66.39835 -66.40048,66.40047 c -1.12636,1.12637 -1.68895,2.4216 -1.68895,3.88587 0,1.46427 0.56259,2.75951 1.68895,3.88587 l 8.44901,8.44689 c 1.12637,1.12636 2.42159,1.69108 3.88587,1.69108 1.46427,0 2.7595,-0.56472 3.88586,-1.69108 l 78.73323,-78.73112 c 1.12637,-1.12636 1.68896,-2.42371 1.68896,-3.88798 0,-1.46427 -0.56259,-2.7595 -1.68896,-3.88586 l -78.73323,-78.73112 c -1.12636,-1.12635 -2.42159,-1.69107 -3.88586,-1.69107 z"
     id="path2-3"
     inkscape:connector-curvature="0" /></svg>