<?xml version="1.0" encoding="UTF-8" standalone="no"?>
<svg
   xmlns:dc="http://purl.org/dc/elements/1.1/"
   xmlns:cc="http://creativecommons.org/ns#"
   xmlns:rdf="http://www.w3.org/1999/02/22-rdf-syntax-ns#"
   xmlns:svg="http://www.w3.org/2000/svg"
   xmlns="http://www.w3.org/2000/svg"
   xmlns:sodipodi="http://sodipodi.sourceforge.net/DTD/sodipodi-0.dtd"
   xmlns:inkscape="http://www.inkscape.org/namespaces/inkscape"
   enable-background="new 0 0 64 64"
   height="64px"
   version="1.1"
   viewBox="0 0 64 64"
   width="64px"
   xml:space="preserve"
   id="svg880"
   sodipodi:docname="mobile.svg"
   inkscape:version="0.92.4 5da689c313, 2019-01-14"><metadata
     id="metadata886"><rdf:RDF><cc:Work
         rdf:about=""><dc:format>image/svg+xml</dc:format><dc:type
           rdf:resource="http://purl.org/dc/dcmitype/StillImage" /></cc:Work></rdf:RDF></metadata><defs
     id="defs884" /><sodipodi:namedview
     pagecolor="#ffffff"
     bordercolor="#666666"
     borderopacity="1"
     objecttolerance="10"
     gridtolerance="10"
     guidetolerance="10"
     inkscape:pageopacity="0"
     inkscape:pageshadow="2"
     inkscape:window-width="1316"
     inkscape:window-height="743"
     id="namedview882"
     showgrid="false"
     inkscape:zoom="2.2773438"
     inkscape:cx="-69.052077"
     inkscape:cy="32"
     inkscape:window-x="50"
     inkscape:window-y="0"
     inkscape:window-maximized="1"
     inkscape:current-layer="svg880" /><g
     id="Layer_1"
     style="fill:#1a1a1a"><path
       d="M20,64h24c3.309,0,6-2.691,6-6V6c0-3.309-2.691-6-6-6H20c-3.309,0-6,2.691-6,6v52C14,61.309,16.691,64,20,64z M32,62   c-1.657,0-3-1.343-3-3s1.343-3,3-3s3,1.343,3,3S33.657,62,32,62z M27,4h10v2H27V4z M16,10h32v44H16V10z"
       id="path875"
       style="fill:#1a1a1a" /></g><g
     id="Camada_2" /><g
     id="Camada_3" /><path
     inkscape:connector-curvature="0"
     style="fill:#1a1a1a;stroke-width:0.12931788"
     d="m 45.797948,21.715515 c 0,0.663212 -0.380599,1.200848 -0.850089,1.200848 h -26.15372 c -0.469491,0 -0.850087,-0.537636 -0.850087,-1.200848 v -7.435037 c 0,0 0.380596,-1.200851 0.850087,-1.200851 h 26.153829 c 0.469381,0 0.850087,0.53764 0.850087,1.200851 z M 28.389262,46.307508 c 0,0.663067 -0.380598,1.200862 -0.850089,1.200862 h -8.745034 c -0.469491,0 -0.850087,-0.537648 -0.850087,-1.200862 v -19.73111 c 0,-0.662902 0.380596,-1.200849 0.850087,-1.200849 h 8.745034 c 0.469491,0 0.850089,0.537639 0.850089,1.200849 z m 1.740869,-14.118789 v -1.330418 c 0,-0.312163 0.178547,-0.564383 0.399529,-0.564383 h 14.868757 c 0.220981,0 0.399531,0.25222 0.399531,0.564383 v 1.330418 c 0,0.312164 -0.17855,0.564382 -0.399531,0.564382 H 30.52966 c -0.220982,0 -0.399529,-0.252218 -0.399529,-0.564382 z m 0,-4.918368 v -1.33042 c 0,-0.312162 0.178547,-0.564382 0.399529,-0.564382 h 14.868757 c 0.220981,0 0.399531,0.25222 0.399531,0.564382 v 1.33042 c 0,0.312162 -0.17855,0.564383 -0.399531,0.564383 H 30.52966 c -0.220982,0 -0.399529,-0.252221 -0.399529,-0.564383 z m 0,9.836739 v -1.330418 c 0,-0.312165 0.178547,-0.564386 0.399529,-0.564386 h 14.868757 c 0.220981,0 0.399531,0.252221 0.399531,0.564386 v 1.330418 c 0,0.312161 -0.17855,0.564383 -0.399531,0.564383 H 30.52966 c -0.220982,0 -0.399529,-0.252222 -0.399529,-0.564383 z m 0,4.918368 v -1.330419 c 0,-0.312162 0.178547,-0.564383 0.399529,-0.564383 h 14.868757 c 0.220981,0 0.399531,0.252221 0.399531,0.564383 v 1.330419 c 0,0.312166 -0.17855,0.56439 -0.399531,0.56439 H 30.52966 c -0.220982,0 -0.399529,-0.252224 -0.399529,-0.56439 z m 0,4.918371 v -1.330416 c 0,-0.312168 0.178547,-0.564392 0.399529,-0.564392 h 14.868757 c 0.220981,0 0.399531,0.252224 0.399531,0.564392 v 1.330416 c 0,0.312156 -0.17855,0.564379 -0.399531,0.564379 H 30.52966 c -0.220982,0 -0.399529,-0.252223 -0.399529,-0.564379 z"
     id="path927-3"
     sodipodi:nodetypes="cssscssccssssssssssssssssssssssssssssssssssssssssssssssssssssss"
     inkscape:transform-center-x="-1.4162996"
     inkscape:transform-center-y="-10.670358" /></svg>