<?xml version="1.0" encoding="UTF-8" standalone="no"?>
<svg
   xmlns:dc="http://purl.org/dc/elements/1.1/"
   xmlns:cc="http://creativecommons.org/ns#"
   xmlns:rdf="http://www.w3.org/1999/02/22-rdf-syntax-ns#"
   xmlns:svg="http://www.w3.org/2000/svg"
   xmlns="http://www.w3.org/2000/svg"
   xmlns:sodipodi="http://sodipodi.sourceforge.net/DTD/sodipodi-0.dtd"
   xmlns:inkscape="http://www.inkscape.org/namespaces/inkscape"
   enable-background="new 0 0 512 512"
   height="512px"
   id="Layer_1"
   version="1.1"
   viewBox="0 0 512 512"
   width="512px"
   xml:space="preserve"
   sodipodi:docname="webpage.svg"
   inkscape:version="0.92.4 5da689c313, 2019-01-14"><metadata
     id="metadata469"><rdf:RDF><cc:Work
         rdf:about=""><dc:format>image/svg+xml</dc:format><dc:type
           rdf:resource="http://purl.org/dc/dcmitype/StillImage" /></cc:Work></rdf:RDF></metadata><defs
     id="defs467" /><sodipodi:namedview
     pagecolor="#ffffff"
     bordercolor="#666666"
     borderopacity="1"
     objecttolerance="10"
     gridtolerance="10"
     guidetolerance="10"
     inkscape:pageopacity="0"
     inkscape:pageshadow="2"
     inkscape:window-width="1316"
     inkscape:window-height="743"
     id="namedview465"
     showgrid="false"
     inkscape:zoom="0.4609375"
     inkscape:cx="256"
     inkscape:cy="256"
     inkscape:window-x="50"
     inkscape:window-y="0"
     inkscape:window-maximized="1"
     inkscape:current-layer="Layer_1" /><g
     id="g462"
     style="fill:#1a1a1a"><path
       d="M384,232.187c0,4.315-3.498,7.813-7.813,7.813H135.813c-4.315,0-7.813-3.498-7.813-7.813v-48.374   c0-4.315,3.498-7.813,7.813-7.813h240.375c4.314,0,7.813,3.498,7.813,7.813L384,232.187L384,232.187z M224,392.188   c0,4.314-3.498,7.813-7.813,7.813h-80.374c-4.315,0-7.813-3.498-7.813-7.813V263.813c0-4.313,3.498-7.813,7.813-7.813h80.374   c4.315,0,7.813,3.498,7.813,7.813V392.188z M240,300.328v-8.656c0-2.031,1.641-3.672,3.672-3.672h136.656   c2.031,0,3.672,1.641,3.672,3.672v8.656c0,2.031-1.641,3.672-3.672,3.672H243.672C241.641,304,240,302.359,240,300.328z    M240,268.328v-8.656c0-2.031,1.641-3.672,3.672-3.672h136.656c2.031,0,3.672,1.641,3.672,3.672v8.656   c0,2.031-1.641,3.672-3.672,3.672H243.672C241.641,272,240,270.359,240,268.328z M240,332.328v-8.656   c0-2.031,1.641-3.672,3.672-3.672h136.656c2.031,0,3.672,1.641,3.672,3.672v8.656c0,2.031-1.641,3.672-3.672,3.672H243.672   C241.641,336,240,334.359,240,332.328z M240,364.328v-8.656c0-2.031,1.641-3.672,3.672-3.672h136.656   c2.031,0,3.672,1.641,3.672,3.672v8.656c0,2.031-1.641,3.672-3.672,3.672H243.672C241.641,368,240,366.359,240,364.328z    M240,396.328v-8.656c0-2.031,1.641-3.672,3.672-3.672h136.656c2.031,0,3.672,1.641,3.672,3.672v8.656   c0,2.031-1.641,3.672-3.672,3.672H243.672C241.641,400,240,398.359,240,396.328z M440,48H72c-30.93,0-56,25.063-56,56v304   c0,30.922,25.07,56,56,56h368c30.93,0,56-25.078,56-56V104C496,73.063,470.93,48,440,48z M416,88.672   c0-4.797,3.883-8.672,8.672-8.672h14.656c4.789,0,8.672,3.875,8.672,8.672v14.656c0,4.797-3.883,8.672-8.672,8.672h-14.656   c-4.789,0-8.672-3.875-8.672-8.672V88.672z M352,88.672c0-4.797,3.883-8.672,8.672-8.672h14.656c4.789,0,8.672,3.875,8.672,8.672   v14.656c0,4.797-3.883,8.672-8.672,8.672h-14.656c-4.789,0-8.672-3.875-8.672-8.672V88.672z M288,88.672   c0-4.797,3.883-8.672,8.672-8.672h14.656c4.789,0,8.672,3.875,8.672,8.672v14.656c0,4.797-3.883,8.672-8.672,8.672h-14.656   c-4.789,0-8.672-3.875-8.672-8.672V88.672z M464,408c0,13.234-10.766,24-24,24H72c-13.234,0-24-10.766-24-24V144h416V408z"
       fill="#4D4D4D"
       id="path460"
       style="fill:#1a1a1a" /></g></svg>